# xmcd CD database file
#
# Track frame offsets:
#	150
#	19410
#	27560
#	49972
#	70340
#	91757
#	113392
#	132715
#	148925
#	151747
#	171180
#	190225
#	205252
#	219280
#	221535
#
# Disc length: 3249 seconds
#
# Revision: 0
# Processed by: cddbd v1.5.1PL0 Copyright (c) Steve Scherf et al.
# Submitted via: CDex 1.51
#
DISCID=de0caf0f
DTITLE=Michael Cooper - Are We Cool
DYEAR=2004
DGENRE=Jazz
TTITLE0=Better Luv
TTITLE1=At The Club
TTITLE2=Since I Had You 
TTITLE3=Steppin To A Love Song
TTITLE4=Are We Cool
TTITLE5=Remember L.O.V.E.
TTITLE6=Marry Me Again
TTITLE7=I Got A Love Jones
TTITLE8=Waiting All Along
TTITLE9=40 Days 40 Nights
TTITLE10=Club Feenz
TTITLE11=Unchained My Heart
TTITLE12=Summer In The Sun
TTITLE13=The Grand Boos
TTITLE14=The Miracle of You
EXTD=YEAR: 2004
EXTT0=
EXTT1=
EXTT2=
EXTT3=
EXTT4=
EXTT5=
EXTT6=
EXTT7=
EXTT8=
EXTT9=
EXTT10=
EXTT11=
EXTT12=
EXTT13=
EXTT14=
PLAYORDER=
